<?xml version="1.0" encoding="UTF-8" standalone="no"?>
<!DOCTYPE svg PUBLIC "-//W3C//DTD SVG 1.1//EN" "http://www.w3.org/Graphics/SVG/1.1/DTD/svg11.dtd">
<svg width="100%" height="100%" viewBox="0 0 2285 801" version="1.1" xmlns="http://www.w3.org/2000/svg" xmlns:xlink="http://www.w3.org/1999/xlink" xml:space="preserve" xmlns:serif="http://www.serif.com/" style="fill-rule:evenodd;clip-rule:evenodd;stroke-linejoin:round;stroke-miterlimit:2;">
    <g transform="matrix(1,0,0,1,-3407.93,-946)">
        <g transform="matrix(1.7002,0,0,0.8716,-208.208,946)">
            <g transform="matrix(1.87093,0,0,3.64956,6814.64,3734.56)">
                <g transform="matrix(0.31272,0.31272,-0.31272,0.31272,-2478.23,-626.339)">
                    <path d="M-120.447,-718L-120.447,-480C-120.447,-472.515 -126.515,-466.447 -134,-466.447L-372,-466.447C-379.485,-466.447 -385.553,-472.515 -385.553,-480L-385.553,-718C-385.553,-725.485 -379.485,-731.553 -372,-731.553L-134,-731.553C-126.515,-731.553 -120.447,-725.485 -120.447,-718ZM-147.553,-704.447L-358.447,-704.447L-358.447,-493.553L-147.553,-493.553L-147.553,-704.447Z" style="fill:rgb(59,182,223);"/>
                </g>
                <g transform="matrix(0.410805,0.429001,-0.410805,0.429001,-2540.79,-527.267)">
                    <path d="M-365.014,-646.504C-369.041,-642.478 -375.44,-642.339 -379.295,-646.195C-383.15,-650.05 -383.012,-656.449 -378.986,-660.475L-311.884,-727.577C-307.858,-731.603 -301.459,-731.742 -297.604,-727.886C-293.748,-724.031 -293.887,-717.632 -297.913,-713.606L-365.014,-646.504Z" style="fill:rgb(59,182,223);"/>
                </g>
                <g transform="matrix(0.410805,0.429001,-0.410805,0.429001,-2540.79,-378.413)">
                    <path d="M-365.014,-646.504C-369.041,-642.478 -375.44,-642.339 -379.295,-646.195C-383.15,-650.05 -383.012,-656.449 -378.986,-660.475L-311.884,-727.577C-307.858,-731.603 -301.459,-731.742 -297.604,-727.886C-293.748,-724.031 -293.887,-717.632 -297.913,-713.606L-365.014,-646.504Z" style="fill:rgb(59,182,223);"/>
                </g>
                <g transform="matrix(0.410805,0.429001,-0.410805,0.429001,-2615.22,-452.84)">
                    <path d="M-365.014,-646.504C-369.041,-642.478 -375.44,-642.339 -379.295,-646.195C-383.15,-650.05 -383.012,-656.449 -378.986,-660.475L-311.884,-727.577C-307.858,-731.603 -301.459,-731.742 -297.604,-727.886C-293.748,-724.031 -293.887,-717.632 -297.913,-713.606L-365.014,-646.504Z" style="fill:rgb(59,182,223);"/>
                </g>
                <g transform="matrix(1.49825,8.87238e-17,-8.87238e-17,1.49825,-1360.07,210.58)">
                    <g transform="matrix(0.783665,0,0,0.783665,-1355.49,-637.077)">
                        <path d="M959.244,-192.396C962.403,-190.779 962.872,-188.928 965.73,-186.867C983.349,-174.164 994.828,-153.464 994.828,-130.104C994.828,-91.508 963.492,-60.172 924.896,-60.172C886.299,-60.172 854.963,-91.508 854.963,-130.104L883.037,-130.104C883.037,-107.002 901.793,-88.246 924.896,-88.246C947.998,-88.246 966.754,-107.002 966.754,-130.104C966.754,-140.49 965.516,-149.998 959.244,-157.318L959.244,-192.396Z" style="fill:rgb(243,94,59);"/>
                    </g>
                    <g transform="matrix(0.514594,0,0,0.498823,-1005.16,-1043.9)">
                        <path d="M673,542.897C673,542.897 672.905,521.682 673,515.621C673.095,509.56 681.029,501.951 695,498.621C708.971,495.291 732.042,496.228 745,498.621C757.958,501.014 769,511.825 769,520.621L769,565.981C769,587.363 752.08,591.981 746,591.981L695,591.981C689.719,591.981 683.037,593.494 673,603.981C670.25,606.854 666.082,613.61 665.604,619.181C664.872,627.732 667,651 667,651C667,651 645.114,652.984 635,645C624.886,637.016 614.092,609.479 627.887,584.005C640.986,559.814 647.916,558.815 657.887,556.005C667.857,553.195 721,554 721,554L721,542.897L673,542.897ZM698.603,511.897C693.36,511.897 689.103,516.154 689.103,521.397C689.103,526.64 693.36,530.897 698.603,530.897C703.846,530.897 708.103,526.64 708.103,521.397C708.103,516.154 703.846,511.897 698.603,511.897Z" style="fill:rgb(243,94,59);"/>
                    </g>
                </g>
                <g transform="matrix(0.31272,0.31272,-0.31272,0.31272,-2533.36,-626.339)">
                    <path d="M-120.447,-718L-120.447,-480C-120.447,-472.515 -126.515,-466.447 -134,-466.447L-372,-466.447C-379.485,-466.447 -385.553,-472.515 -385.553,-480L-385.553,-718C-385.553,-725.485 -379.485,-731.553 -372,-731.553L-134,-731.553C-126.515,-731.553 -120.447,-725.485 -120.447,-718ZM-147.553,-704.447L-358.447,-704.447L-358.447,-493.553L-147.553,-493.553L-147.553,-704.447Z" style="fill:rgb(59,182,223);"/>
                </g>
                <g transform="matrix(0.332084,0.429001,-0.332084,0.429001,-2445.63,-454.259)">
                    <path d="M-365.014,-646.504C-369.995,-641.524 -377.169,-640.61 -381.024,-644.466C-384.88,-648.321 -383.966,-655.495 -378.986,-660.475L-311.884,-727.577C-306.904,-732.557 -299.73,-733.471 -295.874,-729.615C-292.019,-725.76 -292.933,-718.586 -297.913,-713.606L-365.014,-646.504Z" style="fill:rgb(59,182,223);"/>
                </g>
            </g>
        </g>
        <g transform="matrix(1.7002,0,0,0.8716,-208.208,946)">
            <g transform="matrix(4.87949,0,0,2.24063,8144.81,938.523)">
                <g transform="matrix(0.269836,0,0,1,-805.623,0)">
                    <g transform="matrix(206.553,0,0,206.553,-1103.35,-174.797)">
                        <path d="M0.086,-0.53L0.144,-0.53L0.148,-0.396L0.138,-0.411C0.152,-0.452 0.175,-0.484 0.206,-0.507C0.238,-0.53 0.276,-0.542 0.319,-0.542C0.367,-0.542 0.408,-0.53 0.442,-0.505C0.476,-0.481 0.502,-0.448 0.519,-0.406C0.536,-0.365 0.545,-0.318 0.545,-0.265C0.545,-0.213 0.536,-0.166 0.519,-0.124C0.502,-0.083 0.476,-0.05 0.442,-0.025C0.408,-0.001 0.367,0.011 0.319,0.011C0.29,0.011 0.264,0.006 0.239,-0.005C0.215,-0.016 0.194,-0.031 0.177,-0.05C0.161,-0.07 0.149,-0.093 0.142,-0.119L0.152,-0.134L0.152,0.15L0.086,0.15L0.086,-0.53ZM0.145,-0.265C0.145,-0.227 0.151,-0.192 0.164,-0.159C0.177,-0.127 0.195,-0.101 0.22,-0.082C0.245,-0.062 0.275,-0.053 0.309,-0.053C0.362,-0.053 0.403,-0.072 0.432,-0.112C0.46,-0.152 0.474,-0.203 0.474,-0.265C0.474,-0.327 0.46,-0.379 0.432,-0.419C0.403,-0.459 0.362,-0.479 0.309,-0.479C0.275,-0.479 0.245,-0.469 0.22,-0.449C0.195,-0.43 0.177,-0.404 0.164,-0.371C0.151,-0.339 0.145,-0.303 0.145,-0.265Z" style="fill:rgb(35,35,35);fill-rule:nonzero;"/>
                    </g>
                    <g transform="matrix(206.553,0,0,206.553,-969.017,-174.797)">
                        <path d="M0.094,-0.53L0.267,-0.07L0.431,-0.53L0.502,-0.53L0.284,0.067C0.274,0.096 0.259,0.117 0.24,0.13C0.22,0.143 0.196,0.15 0.165,0.15L0.11,0.15L0.11,0.092L0.16,0.092C0.177,0.091 0.191,0.088 0.201,0.08C0.211,0.072 0.219,0.059 0.227,0.039L0.246,-0.01L0.222,-0.01L0.023,-0.53L0.094,-0.53Z" style="fill:rgb(35,35,35);fill-rule:nonzero;"/>
                    </g>
                    <g transform="matrix(206.553,0,0,206.553,-829.594,-174.797)">
                        <path d="M0.152,-0.71L0.152,-0.228L0.436,-0.53L0.527,-0.53L0.309,-0.304L0.54,-0L0.459,-0L0.264,-0.259L0.152,-0.143L0.152,-0L0.086,-0L0.086,-0.71L0.152,-0.71Z" style="fill:rgb(35,35,35);fill-rule:nonzero;"/>
                    </g>
                    <g transform="matrix(206.553,0,0,206.553,-677.159,-174.797)">
                        <path d="M0.086,-0.53L0.144,-0.53L0.148,-0.396L0.138,-0.411C0.152,-0.452 0.175,-0.484 0.206,-0.507C0.238,-0.53 0.276,-0.542 0.319,-0.542C0.367,-0.542 0.408,-0.53 0.442,-0.505C0.476,-0.481 0.502,-0.448 0.519,-0.406C0.536,-0.365 0.545,-0.318 0.545,-0.265C0.545,-0.213 0.536,-0.166 0.519,-0.124C0.502,-0.083 0.476,-0.05 0.442,-0.025C0.408,-0.001 0.367,0.011 0.319,0.011C0.29,0.011 0.264,0.006 0.239,-0.005C0.215,-0.016 0.194,-0.031 0.177,-0.05C0.161,-0.07 0.149,-0.093 0.142,-0.119L0.152,-0.134L0.152,0.15L0.086,0.15L0.086,-0.53ZM0.145,-0.265C0.145,-0.227 0.151,-0.192 0.164,-0.159C0.177,-0.127 0.195,-0.101 0.22,-0.082C0.245,-0.062 0.275,-0.053 0.309,-0.053C0.362,-0.053 0.403,-0.072 0.432,-0.112C0.46,-0.152 0.474,-0.203 0.474,-0.265C0.474,-0.327 0.46,-0.379 0.432,-0.419C0.403,-0.459 0.362,-0.479 0.309,-0.479C0.275,-0.479 0.245,-0.469 0.22,-0.449C0.195,-0.43 0.177,-0.404 0.164,-0.371C0.151,-0.339 0.145,-0.303 0.145,-0.265Z" style="fill:rgb(35,35,35);fill-rule:nonzero;"/>
                    </g>
                    <g transform="matrix(206.553,0,0,206.553,-554.675,-174.797)">
                    </g>
                </g>
            </g>
        </g>
        <g transform="matrix(1.7002,0,0,0.8716,-208.208,946)">
            <g transform="matrix(0.418461,0,0,1.14732,774.005,4.54747e-13)">
                <rect x="3233" y="0" width="3210.52" height="801" style="fill:none;"/>
            </g>
        </g>
    </g>
</svg>
