<?xml version="1.0" encoding="UTF-8" standalone="no"?>
<!DOCTYPE svg PUBLIC "-//W3C//DTD SVG 1.1//EN" "http://www.w3.org/Graphics/SVG/1.1/DTD/svg11.dtd">
<svg width="100%" height="100%" viewBox="0 0 500 500" version="1.1" xmlns="http://www.w3.org/2000/svg" xmlns:xlink="http://www.w3.org/1999/xlink" xml:space="preserve" xmlns:serif="http://www.serif.com/" style="fill-rule:evenodd;clip-rule:evenodd;stroke-linejoin:round;stroke-miterlimit:2;">
    <g transform="matrix(1,0,0,1,-53,-3826)">
        <g id="Artboard3" transform="matrix(1.79856,0,0,2.04918,-42.3237,-4014.16)">
            <rect x="53" y="3826" width="278" height="244" style="fill:none;"/>
            <g transform="matrix(0.55353,-2.98322e-16,-1.60159e-16,0.452471,315.78,4238.08)">
                <path d="M-120.447,-718L-120.447,-480C-120.447,-472.515 -126.515,-466.447 -134,-466.447L-372,-466.447C-379.485,-466.447 -385.553,-472.515 -385.553,-480L-385.553,-718C-385.553,-725.485 -379.485,-731.553 -372,-731.553L-134,-731.553C-126.515,-731.553 -120.447,-725.485 -120.447,-718ZM-147.553,-704.447L-358.447,-704.447L-358.447,-493.553L-147.553,-493.553L-147.553,-704.447Z" style="fill:rgb(59,182,223);"/>
            </g>
            <g transform="matrix(0.74325,0.0131642,0.0161044,0.607553,348.087,4355.02)">
                <path d="M-365.014,-646.504C-369.041,-642.478 -375.44,-642.339 -379.295,-646.195C-383.15,-650.05 -383.012,-656.449 -378.986,-660.475L-311.884,-727.577C-307.858,-731.603 -301.459,-731.742 -297.604,-727.886C-293.748,-724.031 -293.887,-717.632 -297.913,-713.606L-365.014,-646.504Z" style="fill:rgb(59,182,223);"/>
            </g>
            <g transform="matrix(0.74325,0.0131642,0.0161044,0.607553,479.828,4462.71)">
                <path d="M-365.014,-646.504C-369.041,-642.478 -375.44,-642.339 -379.295,-646.195C-383.15,-650.05 -383.012,-656.449 -378.986,-660.475L-311.884,-727.577C-307.858,-731.603 -301.459,-731.742 -297.604,-727.886C-293.748,-724.031 -293.887,-717.632 -297.913,-713.606L-365.014,-646.504Z" style="fill:rgb(59,182,223);"/>
            </g>
            <g transform="matrix(0.74325,0.0131642,0.0161044,0.607553,348.087,4462.71)">
                <path d="M-365.014,-646.504C-369.041,-642.478 -375.44,-642.339 -379.295,-646.195C-383.15,-650.05 -383.012,-656.449 -378.986,-660.475L-311.884,-727.577C-307.858,-731.603 -301.459,-731.742 -297.604,-727.886C-293.748,-724.031 -293.887,-717.632 -297.913,-713.606L-365.014,-646.504Z" style="fill:rgb(59,182,223);"/>
            </g>
            <g transform="matrix(1.46956,-7.45806e-17,1.60159e-16,1.20126,-1130.96,4074.01)">
                <path d="M959.244,-192.396C962.403,-190.779 962.872,-188.928 965.73,-186.867C983.349,-174.164 994.828,-153.464 994.828,-130.104C994.828,-91.508 963.492,-60.172 924.896,-60.172C886.299,-60.172 854.963,-91.508 854.963,-130.104L883.037,-130.104C883.037,-107.002 901.793,-88.246 924.896,-88.246C947.998,-88.246 966.754,-107.002 966.754,-130.104C966.754,-140.49 965.516,-149.998 959.244,-157.318L959.244,-192.396Z" style="fill:rgb(243,94,59);"/>
            </g>
            <g transform="matrix(0.964985,7.45806e-17,1.60159e-16,0.76463,-474.006,3450.4)">
                <path d="M673,542.897C673,542.897 672.905,521.682 673,515.621C673.095,509.56 681.029,501.951 695,498.621C708.971,495.291 732.042,496.228 745,498.621C757.958,501.014 769,511.825 769,520.621L769,565.981C769,587.363 752.08,591.981 746,591.981L695,591.981C689.719,591.981 683.037,593.494 673,603.981C670.25,606.854 666.082,613.61 665.604,619.181C664.872,627.732 667,651 667,651C667,651 645.114,652.984 635,645C624.886,637.016 614.092,609.479 627.887,584.005C640.986,559.814 647.916,558.815 657.887,556.005C667.857,553.195 721,554 721,554L721,542.897L673,542.897ZM698.603,511.897C693.36,511.897 689.103,516.154 689.103,521.397C689.103,526.64 693.36,530.897 698.603,530.897C703.846,530.897 708.103,526.64 708.103,521.397C708.103,516.154 703.846,511.897 698.603,511.897Z" style="fill:rgb(243,94,59);"/>
            </g>
            <g transform="matrix(0.55353,-2.98322e-16,-1.60159e-16,0.452471,266.988,4277.97)">
                <path d="M-120.447,-718L-120.447,-480C-120.447,-472.515 -126.515,-466.447 -134,-466.447L-372,-466.447C-379.485,-466.447 -385.553,-472.515 -385.553,-480L-385.553,-718C-385.553,-725.485 -379.485,-731.553 -372,-731.553L-134,-731.553C-126.515,-731.553 -120.447,-725.485 -120.447,-718ZM-147.553,-704.447L-358.447,-704.447L-358.447,-493.553L-147.553,-493.553L-147.553,-704.447Z" style="fill:rgb(59,182,223);"/>
            </g>
            <g transform="matrix(0.67358,0.0701145,0.0857746,0.550602,496.928,4338.99)">
                <path d="M-365.014,-646.504C-369.995,-641.524 -377.169,-640.61 -381.024,-644.466C-384.88,-648.321 -383.966,-655.495 -378.986,-660.475L-311.884,-727.577C-306.904,-732.557 -299.73,-733.471 -295.874,-729.615C-292.019,-725.76 -292.933,-718.586 -297.913,-713.606L-365.014,-646.504Z" style="fill:rgb(59,182,223);"/>
            </g>
        </g>
    </g>
</svg>
